<svg width="27" height="19" viewBox="0 0 27 19" fill="none" xmlns="http://www.w3.org/2000/svg">
<path fill-rule="evenodd" clip-rule="evenodd" d="M10.8933 18.0389C10.3196 18.6365 9.37002 18.6558 8.77244 18.082L0.961121 10.582C0.666525 10.2991 0.5 9.9084 0.5 9.5C0.5 9.0916 0.666525 8.70085 0.961121 8.418L8.77244 0.917995C9.37002 0.344238 10.3196 0.363544 10.8933 0.961119C11.4671 1.55869 11.4478 2.50824 10.8502 3.082L5.72806 8L25 8C25.8284 8 26.5 8.67157 26.5 9.5C26.5 10.3284 25.8284 11 25 11L5.72806 11L10.8502 15.918C11.4478 16.4918 11.4671 17.4413 10.8933 18.0389Z" fill="#A8B4E5"/>
</svg>
