<svg width="27" height="19" viewBox="0 0 27 19" fill="none" xmlns="http://www.w3.org/2000/svg">
<path fill-rule="evenodd" clip-rule="evenodd" d="M16.1067 0.961123C16.6804 0.363549 17.63 0.344242 18.2276 0.917999L26.0389 8.418C26.3335 8.70085 26.5 9.0916 26.5 9.5C26.5 9.9084 26.3335 10.2992 26.0389 10.582L18.2276 18.082C17.63 18.6558 16.6804 18.6365 16.1067 18.0389C15.5329 17.4413 15.5522 16.4918 16.1498 15.918L21.2719 11H2C1.17157 11 0.5 10.3284 0.5 9.5C0.5 8.67157 1.17157 8 2 8H21.2719L16.1498 3.082C15.5522 2.50825 15.5329 1.5587 16.1067 0.961123Z" fill="#A8B4E5"/>
</svg>
